<?xml version="1.0" encoding="utf-8"?>
<!-- Generator: Adobe Illustrator 23.0.6, SVG Export Plug-In . SVG Version: 6.00 Build 0)  -->
<svg version="1.1" id="Layer_1" xmlns="http://www.w3.org/2000/svg" xmlns:xlink="http://www.w3.org/1999/xlink" x="0px" y="0px"
	 viewBox="0 0 195 44" style="enable-background:new 0 0 195 44;" xml:space="preserve">
<style type="text/css">
	.st0{fill:#FFFFFF;}
</style>
<g>
	<path class="st0" d="M3.28,29.79v13.88h-3.35V10.39h9.96c3.75,0,6.54,0.87,8.38,2.6s2.76,4.11,2.76,7.13
		c0,3.09-0.95,5.47-2.86,7.15S13.5,29.8,9.88,29.8L3.28,29.79L3.28,29.79z M15.8,25.19c1.26-1.18,1.89-2.87,1.89-5.08
		c0-2.27-0.63-3.99-1.89-5.17s-3.32-1.77-6.19-1.77H3.28v13.79h6.33C12.47,26.96,14.54,26.37,15.8,25.19z"/>
	<path class="st0" d="M31.73,18.93c1.67-1.01,3.7-1.51,6.09-1.51v3.59h-1.09c-2.49,0-4.55,0.67-6.19,2.01
		c-1.64,1.34-2.46,3.52-2.46,6.54v14.12h-3.35V17.89h3.35v5.34C28.85,21.37,30.06,19.94,31.73,18.93z"/>
	<path class="st0" d="M59.95,19.15c1.94,1.06,3.45,2.58,4.56,4.58c1.1,2,1.65,4.35,1.65,7.06s-0.55,5.05-1.65,7.04
		c-1.1,1.98-2.62,3.51-4.56,4.58c-1.94,1.07-4.13,1.61-6.59,1.61s-4.66-0.53-6.61-1.61c-1.95-1.07-3.49-2.6-4.6-4.6
		c-1.12-2-1.68-4.34-1.68-7.01c0-2.71,0.56-5.06,1.68-7.06s2.65-3.53,4.6-4.58c1.95-1.05,4.16-1.58,6.61-1.58
		S58.02,18.09,59.95,19.15z M48.64,21.58c-1.45,0.76-2.61,1.91-3.49,3.47s-1.32,3.47-1.32,5.74s0.44,4.17,1.32,5.71
		s2.05,2.69,3.49,3.45c1.45,0.76,3.02,1.13,4.72,1.13c1.67,0,3.22-0.38,4.65-1.13c1.43-0.76,2.59-1.9,3.47-3.45
		c0.88-1.54,1.32-3.45,1.32-5.71s-0.44-4.18-1.32-5.74s-2.04-2.72-3.47-3.47c-1.43-0.76-2.98-1.13-4.65-1.13
		C51.66,20.44,50.09,20.82,48.64,21.58z"/>
	<path class="st0" d="M95.74,13.03c2.71,2.05,4.39,4.82,5.05,8.31h-8.55c-0.57-1.2-1.43-2.15-2.6-2.86
		c-1.17-0.71-2.57-1.06-4.2-1.06c-2.55,0-4.6,0.86-6.14,2.57c-1.53,1.72-2.3,4.04-2.3,6.97c0,3.18,0.81,5.62,2.43,7.32
		s3.93,2.55,6.92,2.55c1.92,0,3.6-0.53,5.05-1.58c1.45-1.05,2.47-2.56,3.07-4.51h-10.2v-5.81h16.95v7.98
		c-0.63,1.95-1.64,3.76-3.02,5.43c-1.39,1.67-3.16,3.02-5.31,4.06c-2.16,1.04-4.62,1.56-7.39,1.56c-3.37,0-6.31-0.72-8.83-2.15
		c-2.52-1.43-4.46-3.44-5.83-6.02c-1.37-2.58-2.05-5.52-2.05-8.83s0.68-6.25,2.05-8.83s3.31-4.59,5.81-6.02s5.42-2.15,8.76-2.15
		C89.59,9.96,93.03,10.99,95.74,13.03z"/>
	<path class="st0" d="M117.72,18.46c1.59-0.94,3.31-1.42,5.17-1.42v8.64h-2.31c-2.14,0-3.8,0.46-4.98,1.37
		c-1.18,0.91-1.77,2.46-1.77,4.63v11.99h-8.07V17.33h8.07v4.96C114.83,20.68,116.13,19.41,117.72,18.46z"/>
	<path class="st0" d="M145.63,18.63c2.06,1.09,3.68,2.65,4.86,4.7c1.18,2.05,1.77,4.44,1.77,7.18s-0.59,5.13-1.77,7.18
		c-1.18,2.05-2.8,3.61-4.86,4.7s-4.4,1.63-7.01,1.63s-4.96-0.54-7.04-1.63c-2.08-1.09-3.71-2.65-4.89-4.7s-1.77-4.44-1.77-7.18
		s0.59-5.13,1.77-7.18s2.81-3.61,4.89-4.7S136,17,138.62,17C141.23,17,143.57,17.54,145.63,18.63z M134.72,25.66
		c-1.05,1.12-1.58,2.73-1.58,4.84s0.53,3.71,1.58,4.82c1.05,1.1,2.35,1.65,3.9,1.65c1.54,0,2.83-0.55,3.87-1.65
		c1.04-1.1,1.56-2.71,1.56-4.82s-0.52-3.72-1.56-4.84s-2.33-1.68-3.87-1.68C137.08,23.99,135.78,24.55,134.72,25.66z"/>
	<path class="st0" d="M195,17.33l-6.75,26.35h-9.02l-4.77-17.66l-4.82,17.66h-9.02l-6.75-26.35h8.07l3.49,18.98l4.91-18.98h8.59
		L184,36.36l3.49-19.03H195z"/>
	<g>
		<g>
			<path class="st0" d="M136.36,2.87c-2.54-2.53-7.5-2.83-11.01-2.83c-0.36,0-0.66,0.3-0.66,0.66c0,3.51,0.29,8.47,2.83,11.01
				c1.19,1.06,2.75,1.61,4.34,1.55c1.64,0.06,3.25-0.49,4.5-1.55C138.25,9.82,138.6,5.1,136.36,2.87z"/>
			<path class="st0" d="M153.06,2.65c-3.51,0-8.47,0.29-11.01,2.83c-2.24,2.24-1.89,6.95,0,8.84c1.25,1.06,2.86,1.61,4.5,1.55
				c1.59,0.07,3.15-0.49,4.34-1.55c2.54-2.54,2.83-7.5,2.83-11.01C153.71,2.94,153.42,2.65,153.06,2.65z"/>
		</g>
		<path class="st0" d="M138.53,26.4c-0.36,0-0.66-0.3-0.66-0.66c0-13.98-5.12-17.48-7.05-18.8c-0.23-0.15-0.45-0.32-0.66-0.5
			c-0.25-0.26-0.25-0.68,0.02-0.93c0.26-0.25,0.66-0.25,0.92,0c0.15,0.13,0.31,0.24,0.47,0.34c1.71,1.17,5.75,3.93,7.14,12.99
			c1.08-4.73,4.28-8.71,8.67-10.78c0.34-0.16,0.74-0.03,0.92,0.29c0.17,0.29,0.06,0.67-0.23,0.83c-0.01,0.01-0.02,0.01-0.03,0.02
			l-0.11,0.05c-7.22,3.4-8.74,10.84-8.74,16.49C139.19,26.1,138.89,26.4,138.53,26.4z"/>
	</g>
</g>
</svg>
