<?xml version="1.0" encoding="utf-8"?>
<!-- Generator: Adobe Illustrator 23.0.6, SVG Export Plug-In . SVG Version: 6.00 Build 0)  -->
<svg version="1.1" id="Layer_1" xmlns="http://www.w3.org/2000/svg" xmlns:xlink="http://www.w3.org/1999/xlink" x="0px" y="0px"
	 viewBox="0 0 1440 2960" style="enable-background:new 0 0 1440 2960;" xml:space="preserve">
<style type="text/css">
	.st0{enable-background:new    ;}
	.st1{fill:#FFFFFF;}
	.st2{fill:#FFBD03;}
</style>
<rect width="1440" height="2960"/>
<g class="st0">
	<path class="st1" d="M469.17,1240.88h21.06c5.47,0,10.3,1.1,14.48,3.29c4.19,2.19,7.44,5.25,9.76,9.16
		c2.32,3.92,3.47,8.39,3.47,13.41s-1.16,9.5-3.47,13.41c-2.32,3.92-5.57,6.97-9.76,9.16c-4.19,2.19-9.02,3.29-14.48,3.29h-21.06
		V1240.88z M489.94,1287.88c4.53,0,8.5-0.9,11.9-2.7c3.4-1.8,6.03-4.29,7.91-7.46c1.87-3.18,2.81-6.84,2.81-10.97
		s-0.94-7.8-2.81-10.97c-1.87-3.18-4.51-5.67-7.91-7.46c-3.4-1.8-7.37-2.7-11.9-2.7h-15.3v42.27H489.94z"/>
	<path class="st1" d="M562.95,1274.8h-32.52c0.3,4.04,1.85,7.3,4.66,9.79c2.81,2.49,6.36,3.73,10.64,3.73
		c2.41,0,4.63-0.43,6.65-1.29c2.02-0.86,3.77-2.13,5.25-3.81l2.96,3.4c-1.73,2.07-3.88,3.65-6.47,4.73
		c-2.59,1.08-5.43,1.63-8.54,1.63c-3.99,0-7.53-0.85-10.6-2.55c-3.08-1.7-5.48-4.05-7.21-7.06c-1.73-3-2.59-6.4-2.59-10.2
		s0.82-7.19,2.48-10.2c1.65-3,3.92-5.34,6.8-7.02c2.88-1.67,6.12-2.51,9.72-2.51c3.6,0,6.82,0.84,9.68,2.51
		c2.86,1.68,5.1,4,6.73,6.98c1.63,2.98,2.44,6.39,2.44,10.24L562.95,1274.8z M534.76,1261.54c-2.54,2.39-3.98,5.51-4.32,9.35H558
		c-0.35-3.84-1.79-6.96-4.32-9.35c-2.54-2.39-5.7-3.58-9.5-3.58C540.44,1257.95,537.3,1259.15,534.76,1261.54z"/>
	<path class="st1" d="M605.67,1253.74l-17.29,38.87h-5.4l-17.22-38.87h5.47l14.56,33.11l14.71-33.11H605.67z"/>
	<path class="st1" d="M645.8,1274.8h-32.52c0.3,4.04,1.85,7.3,4.66,9.79c2.81,2.49,6.36,3.73,10.64,3.73c2.41,0,4.63-0.43,6.65-1.29
		c2.02-0.86,3.77-2.13,5.25-3.81l2.96,3.4c-1.73,2.07-3.88,3.65-6.47,4.73c-2.59,1.08-5.43,1.63-8.54,1.63
		c-3.99,0-7.53-0.85-10.6-2.55c-3.08-1.7-5.48-4.05-7.21-7.06c-1.73-3-2.59-6.4-2.59-10.2s0.82-7.19,2.48-10.2
		c1.65-3,3.92-5.34,6.8-7.02c2.88-1.67,6.12-2.51,9.72-2.51c3.6,0,6.82,0.84,9.68,2.51c2.86,1.68,5.1,4,6.73,6.98
		c1.63,2.98,2.44,6.39,2.44,10.24L645.8,1274.8z M617.6,1261.54c-2.54,2.39-3.98,5.51-4.32,9.35h27.57
		c-0.35-3.84-1.79-6.96-4.32-9.35c-2.54-2.39-5.7-3.58-9.5-3.58C623.28,1257.95,620.14,1259.15,617.6,1261.54z"/>
	<path class="st1" d="M656.59,1237.78h5.25v54.84h-5.25V1237.78z"/>
	<path class="st1" d="M682.23,1290.43c-3.01-1.7-5.37-4.05-7.09-7.06c-1.73-3-2.59-6.4-2.59-10.2s0.86-7.19,2.59-10.2
		c1.72-3,4.09-5.34,7.09-7.02c3-1.67,6.38-2.51,10.13-2.51c3.74,0,7.12,0.84,10.12,2.51c3,1.68,5.36,4.02,7.06,7.02
		c1.7,3.01,2.55,6.41,2.55,10.2s-0.85,7.19-2.55,10.2c-1.7,3.01-4.05,5.36-7.06,7.06c-3.01,1.7-6.38,2.55-10.12,2.55
		C688.61,1292.98,685.24,1292.13,682.23,1290.43z M699.79,1286.44c2.19-1.26,3.9-3.04,5.14-5.36c1.23-2.32,1.85-4.95,1.85-7.91
		s-0.62-5.59-1.85-7.91c-1.23-2.32-2.94-4.1-5.14-5.36c-2.19-1.26-4.67-1.88-7.43-1.88c-2.76,0-5.24,0.63-7.43,1.88
		c-2.19,1.26-3.92,3.04-5.17,5.36c-1.26,2.32-1.88,4.95-1.88,7.91s0.63,5.59,1.88,7.91c1.26,2.32,2.98,4.1,5.17,5.36
		c2.19,1.26,4.67,1.88,7.43,1.88C695.12,1288.33,697.59,1287.7,699.79,1286.44z"/>
	<path class="st1" d="M752.74,1255.92c2.96,1.65,5.27,3.98,6.95,6.98c1.67,3.01,2.51,6.43,2.51,10.27c0,3.89-0.84,7.34-2.51,10.35
		c-1.68,3.01-3.98,5.33-6.91,6.98c-2.93,1.65-6.25,2.48-9.94,2.48c-3.15,0-6-0.65-8.54-1.96c-2.54-1.3-4.62-3.21-6.25-5.73v21.65
		h-5.25v-53.21h5.03v7.69c1.58-2.56,3.66-4.53,6.24-5.91c2.59-1.38,5.51-2.07,8.76-2.07
		C746.48,1253.44,749.78,1254.27,752.74,1255.92z M749.86,1286.44c2.22-1.26,3.95-3.04,5.21-5.36c1.26-2.32,1.88-4.95,1.88-7.91
		s-0.63-5.58-1.88-7.87s-2.99-4.08-5.21-5.36c-2.22-1.28-4.68-1.92-7.39-1.92c-2.76,0-5.24,0.64-7.43,1.92
		c-2.19,1.28-3.92,3.07-5.17,5.36s-1.88,4.92-1.88,7.87s0.63,5.59,1.88,7.91c1.26,2.32,2.98,4.1,5.17,5.36
		c2.19,1.26,4.67,1.88,7.43,1.88C745.17,1288.33,747.64,1287.7,749.86,1286.44z"/>
	<path class="st1" d="M806.76,1274.8h-32.52c0.3,4.04,1.85,7.3,4.66,9.79c2.81,2.49,6.36,3.73,10.64,3.73
		c2.41,0,4.63-0.43,6.65-1.29c2.02-0.86,3.77-2.13,5.25-3.81l2.96,3.4c-1.73,2.07-3.88,3.65-6.47,4.73
		c-2.59,1.08-5.43,1.63-8.54,1.63c-3.99,0-7.53-0.85-10.6-2.55c-3.08-1.7-5.48-4.05-7.21-7.06c-1.72-3-2.59-6.4-2.59-10.2
		s0.82-7.19,2.48-10.2c1.65-3,3.92-5.34,6.8-7.02c2.88-1.67,6.12-2.51,9.72-2.51c3.6,0,6.82,0.84,9.68,2.51
		c2.86,1.68,5.1,4,6.73,6.98c1.63,2.98,2.44,6.39,2.44,10.24L806.76,1274.8z M778.57,1261.54c-2.54,2.39-3.98,5.51-4.32,9.35h27.57
		c-0.34-3.84-1.79-6.96-4.32-9.35c-2.54-2.39-5.7-3.58-9.5-3.58C784.24,1257.95,781.1,1259.15,778.57,1261.54z"/>
	<path class="st1" d="M853.02,1237.78v54.84H848v-7.69c-1.58,2.61-3.66,4.61-6.24,5.99c-2.59,1.38-5.51,2.07-8.76,2.07
		c-3.65,0-6.95-0.84-9.9-2.51c-2.96-1.67-5.27-4.01-6.95-7.02c-1.67-3-2.51-6.43-2.51-10.27s0.84-7.27,2.51-10.27
		c1.67-3,3.99-5.33,6.95-6.98c2.96-1.65,6.26-2.48,9.9-2.48c3.15,0,6,0.65,8.54,1.96c2.54,1.31,4.62,3.21,6.25,5.73v-23.35H853.02z
		 M840.79,1286.44c2.19-1.26,3.92-3.04,5.17-5.36c1.26-2.32,1.88-4.95,1.88-7.91s-0.63-5.59-1.88-7.91
		c-1.26-2.32-2.98-4.1-5.17-5.36c-2.19-1.26-4.64-1.88-7.35-1.88c-2.76,0-5.24,0.63-7.43,1.88c-2.19,1.26-3.92,3.04-5.17,5.36
		c-1.26,2.32-1.88,4.95-1.88,7.91s0.63,5.59,1.88,7.91c1.26,2.32,2.98,4.1,5.17,5.36c2.19,1.26,4.67,1.88,7.43,1.88
		C836.15,1288.33,838.6,1287.7,840.79,1286.44z"/>
	<path class="st1" d="M928.59,1270.33c1.85,2.19,2.77,5.01,2.77,8.46c0,4.43-1.64,7.85-4.92,10.24s-8.12,3.58-14.52,3.58h-23.8
		v-51.73h22.32c5.76,0,10.24,1.16,13.41,3.47c3.18,2.32,4.77,5.59,4.77,9.83c0,2.86-0.7,5.28-2.11,7.28c-1.4,2-3.34,3.49-5.8,4.47
		C924.12,1266.67,926.74,1268.14,928.59,1270.33z M893.6,1245.39v18.77h16.48c4.19,0,7.42-0.8,9.68-2.4c2.27-1.6,3.4-3.93,3.4-6.98
		c0-3.05-1.13-5.38-3.4-6.98c-2.27-1.6-5.49-2.4-9.68-2.4H893.6z M922.34,1285.74c2.36-1.58,3.55-4.04,3.55-7.39
		c0-6.45-4.68-9.68-14.04-9.68H893.6v19.44h18.25C916.48,1288.1,919.98,1287.32,922.34,1285.74z"/>
	<path class="st1" d="M975.41,1253.74l-19.44,43.53c-1.58,3.65-3.4,6.23-5.47,7.76c-2.07,1.53-4.56,2.29-7.46,2.29
		c-1.87,0-3.62-0.3-5.25-0.89c-1.63-0.59-3.03-1.48-4.21-2.66l2.44-3.92c1.97,1.97,4.33,2.96,7.09,2.96c1.77,0,3.29-0.49,4.54-1.48
		c1.26-0.99,2.43-2.66,3.51-5.03l1.7-3.77l-17.37-38.8h5.47l14.63,33.03l14.63-33.03H975.41z"/>
</g>
<g class="st0">
	<path class="st1" d="M339.3,1362.68h-24.83v-14.63h67.62v14.63h-24.83v62.97H339.3V1362.68z"/>
	<path class="st1" d="M442.51,1400.7h-45.12c0.81,3.7,2.73,6.62,5.76,8.76c3.03,2.14,6.8,3.21,11.31,3.21c3.1,0,5.86-0.46,8.26-1.39
		c2.4-0.92,4.64-2.38,6.71-4.38l9.2,9.98c-5.62,6.43-13.82,9.64-24.61,9.64c-6.73,0-12.68-1.31-17.85-3.94
		c-5.17-2.62-9.16-6.26-11.97-10.92c-2.81-4.66-4.21-9.94-4.21-15.85c0-5.84,1.39-11.1,4.16-15.8c2.77-4.69,6.58-8.35,11.42-10.97
		c4.84-2.62,10.25-3.94,16.24-3.94c5.84,0,11.12,1.26,15.85,3.77c4.73,2.51,8.44,6.12,11.14,10.81c2.7,4.69,4.05,10.14,4.05,16.35
		C442.84,1396.27,442.73,1397.82,442.51,1400.7z M402.05,1381.52c-2.66,2.22-4.29,5.25-4.88,9.09h29.38
		c-0.59-3.77-2.22-6.78-4.88-9.04c-2.66-2.25-5.91-3.38-9.76-3.38C407.99,1378.2,404.71,1379.3,402.05,1381.52z"/>
	<path class="st1" d="M498.05,1371.71c4.95,4.4,7.43,11.03,7.43,19.9v34.03h-16.19v-7.43c-3.25,5.54-9.31,8.31-18.18,8.31
		c-4.58,0-8.56-0.78-11.92-2.33c-3.36-1.55-5.93-3.69-7.7-6.43c-1.77-2.73-2.66-5.84-2.66-9.31c0-5.54,2.09-9.9,6.26-13.08
		c4.17-3.18,10.62-4.77,19.34-4.77h13.75c0-3.77-1.15-6.67-3.44-8.7c-2.29-2.03-5.73-3.05-10.31-3.05c-3.18,0-6.3,0.5-9.37,1.5
		c-3.07,1-5.67,2.35-7.82,4.05l-6.21-12.08c3.25-2.29,7.15-4.06,11.7-5.32c4.54-1.26,9.22-1.88,14.02-1.88
		C486,1365.12,493.09,1367.32,498.05,1371.71z M483.3,1412.84c2.29-1.37,3.92-3.38,4.88-6.04v-6.1h-11.86
		c-7.09,0-10.64,2.33-10.64,6.98c0,2.22,0.87,3.97,2.61,5.27c1.74,1.29,4.12,1.94,7.15,1.94
		C478.39,1414.89,481.01,1414.21,483.3,1412.84z"/>
	<path class="st1" d="M615.28,1371.71c4.4,4.4,6.6,10.99,6.6,19.79v34.14h-17.29v-31.48c0-4.73-0.98-8.26-2.94-10.59
		c-1.96-2.33-4.75-3.49-8.37-3.49c-4.07,0-7.28,1.31-9.64,3.94c-2.37,2.62-3.55,6.52-3.55,11.7v29.93h-17.29v-31.48
		c0-9.38-3.77-14.08-11.31-14.08c-3.99,0-7.17,1.31-9.53,3.94c-2.37,2.62-3.55,6.52-3.55,11.7v29.93H521.1V1366h16.52v6.87
		c2.22-2.51,4.93-4.43,8.15-5.76s6.74-2,10.59-2c4.21,0,8.02,0.83,11.42,2.49c3.4,1.66,6.13,4.08,8.2,7.26
		c2.44-3.1,5.52-5.5,9.26-7.21c3.73-1.7,7.82-2.55,12.25-2.55C604.95,1365.12,610.88,1367.32,615.28,1371.71z"/>
</g>
<g class="st0">
	<path class="st2" d="M729.24,1351.48c5.06,2.29,8.96,5.54,11.7,9.76c2.73,4.21,4.1,9.2,4.1,14.97c0,5.69-1.37,10.66-4.1,14.91
		c-2.74,4.25-6.63,7.5-11.7,9.75c-5.06,2.25-11.03,3.38-17.9,3.38h-15.63v21.4h-17.96v-77.6h33.59
		C718.21,1348.04,724.18,1349.19,729.24,1351.48z M722.64,1386.12c2.81-2.33,4.21-5.63,4.21-9.92c0-4.36-1.4-7.71-4.21-10.03
		c-2.81-2.33-6.91-3.49-12.31-3.49h-14.63v26.94h14.63C715.73,1389.61,719.83,1388.45,722.64,1386.12z"/>
	<path class="st2" d="M781.45,1367.33c3.51-1.48,7.56-2.22,12.14-2.22v15.96c-1.92-0.15-3.21-0.22-3.88-0.22
		c-4.95,0-8.83,1.39-11.64,4.16c-2.81,2.77-4.21,6.93-4.21,12.47v28.16h-17.29V1366h16.52v7.87
		C775.15,1370.99,777.94,1368.81,781.45,1367.33z"/>
	<path class="st2" d="M814.82,1422.59c-4.99-2.62-8.89-6.26-11.7-10.92c-2.81-4.66-4.21-9.94-4.21-15.85c0-5.91,1.4-11.2,4.21-15.85
		c2.81-4.66,6.71-8.29,11.7-10.92c4.99-2.62,10.62-3.94,16.91-3.94c6.28,0,11.9,1.31,16.85,3.94c4.95,2.62,8.83,6.26,11.64,10.92
		c2.81,4.66,4.21,9.94,4.21,15.85c0,5.91-1.4,11.2-4.21,15.85c-2.81,4.66-6.69,8.3-11.64,10.92c-4.95,2.62-10.57,3.94-16.85,3.94
		C825.44,1426.53,819.81,1425.22,814.82,1422.59z M842.65,1407.85c2.84-2.99,4.27-7,4.27-12.03c0-5.02-1.42-9.04-4.27-12.03
		c-2.85-2.99-6.49-4.49-10.92-4.49c-4.43,0-8.09,1.5-10.97,4.49c-2.88,2.99-4.32,7-4.32,12.03c0,5.03,1.44,9.04,4.32,12.03
		c2.88,2.99,6.54,4.49,10.97,4.49C836.16,1412.34,839.8,1410.84,842.65,1407.85z"/>
	<path class="st2" d="M936.71,1343.39v82.25h-16.52v-6.87c-4.29,5.17-10.5,7.76-18.62,7.76c-5.62,0-10.7-1.26-15.24-3.77
		c-4.54-2.51-8.11-6.1-10.7-10.75c-2.59-4.66-3.88-10.05-3.88-16.18c0-6.13,1.29-11.53,3.88-16.18c2.59-4.66,6.15-8.24,10.7-10.75
		c4.54-2.51,9.63-3.77,15.24-3.77c7.61,0,13.56,2.4,17.85,7.21v-28.93H936.71z M915.42,1407.85c2.88-2.99,4.32-7,4.32-12.03
		c0-5.02-1.44-9.04-4.32-12.03c-2.88-2.99-6.5-4.49-10.86-4.49c-4.43,0-8.09,1.5-10.97,4.49c-2.88,2.99-4.32,7-4.32,12.03
		c0,5.03,1.44,9.04,4.32,12.03c2.88,2.99,6.54,4.49,10.97,4.49C908.92,1412.34,912.54,1410.84,915.42,1407.85z"/>
	<path class="st2" d="M953.56,1354.92c-2-1.85-2.99-4.14-2.99-6.87c0-2.73,1-5.02,2.99-6.87c2-1.85,4.58-2.77,7.76-2.77
		c3.18,0,5.76,0.89,7.76,2.66s2.99,3.99,2.99,6.65c0,2.88-1,5.27-2.99,7.15c-2,1.88-4.58,2.83-7.76,2.83
		C958.14,1357.69,955.55,1356.76,953.56,1354.92z M952.67,1366h17.29v59.64h-17.29V1366z"/>
	<path class="st2" d="M1047.56,1366v49.66c0,10.94-2.85,19.07-8.54,24.39c-5.69,5.32-14.01,7.98-24.94,7.98
		c-5.76,0-11.23-0.7-16.41-2.11c-5.17-1.41-9.46-3.44-12.86-6.1l6.87-12.42c2.51,2.07,5.69,3.71,9.53,4.93
		c3.84,1.22,7.69,1.83,11.53,1.83c5.99,0,10.4-1.35,13.25-4.05c2.84-2.7,4.27-6.78,4.27-12.25v-2.55
		c-4.51,4.95-10.79,7.43-18.85,7.43c-5.47,0-10.48-1.2-15.02-3.6c-4.54-2.4-8.15-5.78-10.81-10.14c-2.66-4.36-3.99-9.38-3.99-15.08
		c0-5.69,1.33-10.71,3.99-15.08c2.66-4.36,6.26-7.74,10.81-10.14c4.54-2.4,9.55-3.6,15.02-3.6c8.65,0,15.22,2.85,19.73,8.54V1366
		H1047.56z M1026.11,1404.52c2.92-2.7,4.38-6.23,4.38-10.59c0-4.36-1.46-7.89-4.38-10.59c-2.92-2.7-6.67-4.05-11.25-4.05
		c-4.58,0-8.35,1.35-11.31,4.05c-2.96,2.7-4.43,6.23-4.43,10.59c0,4.36,1.48,7.89,4.43,10.59c2.96,2.7,6.72,4.05,11.31,4.05
		C1019.44,1408.57,1023.19,1407.22,1026.11,1404.52z"/>
	<path class="st2" d="M1122.83,1366l-26.94,63.3c-2.74,6.87-6.12,11.71-10.14,14.52c-4.03,2.81-8.89,4.21-14.58,4.21
		c-3.1,0-6.17-0.48-9.2-1.44c-3.03-0.96-5.51-2.29-7.43-3.99l6.32-12.3c1.33,1.18,2.86,2.11,4.6,2.77c1.74,0.67,3.45,1,5.16,1
		c2.36,0,4.29-0.57,5.76-1.72c1.48-1.15,2.81-3.05,3.99-5.71l0.22-0.55l-25.83-60.08h17.85l16.74,40.46l16.85-40.46H1122.83z"/>
</g>
</svg>
