<?xml version="1.0" encoding="utf-8"?>
<!-- Generator: Adobe Illustrator 23.0.6, SVG Export Plug-In . SVG Version: 6.00 Build 0)  -->
<svg version="1.1" id="Layer_1" xmlns="http://www.w3.org/2000/svg" xmlns:xlink="http://www.w3.org/1999/xlink" x="0px" y="0px"
	 viewBox="0 0 1440 2960" style="enable-background:new 0 0 1440 2960;" xml:space="preserve">
<style type="text/css">
	.st0{fill:#186637;}
	.st1{fill:#27AE60;}
</style>
<g>
	<path class="st0" d="M219.91,1349v74.16H202v-177.83h53.22c20.01,0,34.94,4.63,44.77,13.87c9.84,9.25,14.76,21.95,14.76,38.09
		c0,16.48-5.09,29.22-15.26,38.21c-10.18,9-24.93,13.49-44.27,13.49H219.91z M286.75,1324.41c6.72-6.31,10.09-15.34,10.09-27.12
		c0-12.11-3.37-21.31-10.09-27.62c-6.73-6.31-17.74-9.46-33.04-9.46h-33.8v73.65h33.8C269.01,1333.87,280.02,1330.72,286.75,1324.41
		z"/>
	<path class="st0" d="M371.87,1290.99c8.91-5.38,19.76-8.07,32.54-8.07v19.17h-5.8c-13.29,0-24.3,3.58-33.04,10.72
		c-8.75,7.15-13.12,18.79-13.12,34.94v75.42h-17.91v-137.72h17.91v28.5C356.48,1304.02,362.95,1296.37,371.87,1290.99z"/>
	<path class="st0" d="M522.62,1292.12c10.34,5.64,18.45,13.79,24.34,24.47c5.88,10.68,8.83,23.25,8.83,37.71
		c0,14.46-2.94,26.99-8.83,37.58c-5.89,10.59-14,18.75-24.34,24.47c-10.34,5.72-22.07,8.58-35.19,8.58
		c-13.12,0-24.89-2.86-35.31-8.58c-10.43-5.71-18.63-13.91-24.59-24.59c-5.97-10.68-8.95-23.16-8.95-37.46
		c0-14.46,2.98-27.03,8.95-37.71c5.97-10.68,14.16-18.83,24.59-24.47c10.42-5.63,22.2-8.45,35.31-8.45
		C500.55,1283.67,512.28,1286.49,522.62,1292.12z M462.21,1305.11c-7.74,4.04-13.96,10.22-18.67,18.54
		c-4.71,8.32-7.06,18.54-7.06,30.65c0,12.11,2.35,22.28,7.06,30.52c4.71,8.24,10.93,14.38,18.67,18.41
		c7.73,4.04,16.14,6.05,25.22,6.05c8.91,0,17.19-2.02,24.85-6.05c7.65-4.04,13.83-10.17,18.54-18.41
		c4.71-8.24,7.06-18.41,7.06-30.52c0-12.11-2.36-22.32-7.06-30.65c-4.71-8.32-10.89-14.5-18.54-18.54
		c-7.65-4.04-15.93-6.05-24.85-6.05C478.35,1299.06,469.94,1301.08,462.21,1305.11z"/>
	<path class="st1" d="M713.8,1259.46c14.46,10.93,23.46,25.73,26.99,44.39h-45.65c-3.03-6.39-7.65-11.48-13.87-15.26
		c-6.22-3.78-13.71-5.68-22.45-5.68c-13.62,0-24.55,4.58-32.79,13.75c-8.24,9.17-12.36,21.57-12.36,37.21
		c0,16.99,4.33,30.02,12.99,39.1c8.66,9.08,20.98,13.62,36.95,13.62c10.26,0,19.25-2.81,26.99-8.45c7.73-5.63,13.2-13.66,16.4-24.09
		H652.5v-31.03h90.55v42.63c-3.37,10.43-8.75,20.1-16.14,29.01c-7.4,8.91-16.86,16.14-28.38,21.69
		c-11.52,5.55-24.68,8.32-39.48,8.32c-18,0-33.72-3.82-47.17-11.48c-13.46-7.65-23.84-18.37-31.15-32.16
		c-7.31-13.79-10.97-29.51-10.97-47.17c0-17.66,3.66-33.38,10.97-47.17c7.31-13.79,17.66-24.51,31.03-32.16
		c13.37-7.65,28.96-11.48,46.79-11.48C680.92,1243.06,699.33,1248.53,713.8,1259.46z"/>
	<path class="st1" d="M831.22,1288.47c8.49-5.04,17.7-7.57,27.62-7.57v46.16h-12.36c-11.44,0-20.3,2.44-26.61,7.32
		c-6.31,4.88-9.46,13.12-9.46,24.72v64.07h-43.13v-140.75h43.13v26.48C815.78,1300.32,822.72,1293.51,831.22,1288.47z"/>
	<path class="st1" d="M980.29,1289.35c11.01,5.8,19.68,14.17,25.98,25.1c6.31,10.93,9.46,23.71,9.46,38.34s-3.15,27.41-9.46,38.34
		c-6.31,10.93-14.97,19.3-25.98,25.1c-11.02,5.8-23.5,8.7-37.46,8.7c-13.96,0-26.49-2.9-37.58-8.7c-11.1-5.8-19.8-14.16-26.11-25.1
		c-6.31-10.93-9.46-23.71-9.46-38.34s3.15-27.41,9.46-38.34c6.31-10.93,15.01-19.3,26.11-25.1c11.1-5.8,23.62-8.7,37.58-8.7
		C956.79,1280.65,969.27,1283.55,980.29,1289.35z M922.02,1326.93c-5.64,5.97-8.45,14.59-8.45,25.85c0,11.27,2.81,19.84,8.45,25.73
		c5.63,5.89,12.57,8.83,20.81,8.83c8.24,0,15.13-2.94,20.68-8.83c5.55-5.88,8.32-14.46,8.32-25.73c0-11.26-2.78-19.88-8.32-25.85
		c-5.55-5.97-12.45-8.95-20.68-8.95C934.59,1317.98,927.65,1320.97,922.02,1326.93z"/>
	<path class="st1" d="M1244,1282.41l-36.07,140.75h-48.18l-25.48-94.34l-25.73,94.34h-48.18l-36.07-140.75h43.13l18.67,101.4
		l26.23-101.4h45.91l26.99,101.65l18.67-101.65H1244z"/>
	<g>
		<g>
			<path class="st1" d="M930.77,1205.18c-13.54-13.54-40.05-15.11-58.8-15.11c-1.94,0-3.52,1.58-3.52,3.52
				c0,18.76,1.57,45.26,15.11,58.81c6.36,5.66,14.66,8.63,23.17,8.27c8.77,0.35,17.35-2.61,24.05-8.27
				C940.86,1242.3,942.71,1217.12,930.77,1205.18z"/>
			<path class="st1" d="M1019.95,1204c-18.76,0-45.26,1.57-58.81,15.11c-11.97,11.97-10.09,37.12,0,47.21
				c6.7,5.67,15.28,8.62,24.05,8.27c8.5,0.35,16.81-2.61,23.17-8.27c13.54-13.54,15.11-40.05,15.11-58.81
				C1023.47,1205.57,1021.89,1204,1019.95,1204z"/>
		</g>
		<path class="st0" d="M942.36,1330.86c-1.94,0-3.52-1.58-3.52-3.52c0-74.65-27.38-93.38-37.68-100.43
			c-1.24-0.79-2.42-1.69-3.52-2.67c-1.35-1.4-1.31-3.63,0.09-4.98c1.36-1.32,3.53-1.32,4.89,0c0.79,0.67,1.64,1.29,2.52,1.84
			c9.15,6.26,30.7,21.01,38.16,69.38c5.76-25.29,22.84-46.52,46.3-57.57c1.8-0.85,3.94-0.17,4.93,1.56
			c0.89,1.57,0.34,3.56-1.23,4.45c-0.06,0.03-0.12,0.07-0.18,0.09l-0.57,0.27c-38.59,18.14-46.69,57.9-46.69,88.06
			C945.86,1329.27,944.3,1330.84,942.36,1330.86z"/>
	</g>
</g>
</svg>
